<?xml version="1.0" encoding="UTF-8"?>
<svg id="Layer_1" data-name="Layer 1" xmlns="http://www.w3.org/2000/svg" viewBox="0 0 160 160">
  <defs>
    <style>
      .cls-1 {
        fill: #bf1d20;
        stroke-width: 0px;
      }
    </style>
  </defs>
  <path class="cls-1" d="M14.53,113.18v14.91h24.88s24.34-64.63,111.78-95.83c0,0-70.2,16.37-136.66,80.92Z"/>
  <g>
    <path class="cls-1" d="M151.18,32.25S80.98,48.62,14.53,113.18v14.91C71.33,54.79,151.18,32.25,151.18,32.25Z"/>
    <polygon class="cls-1" points="14.53 127.96 14.53 128.09 14.54 128.09 14.53 127.96"/>
  </g>
  <g>
    <path class="cls-1" d="M61.27,72.62l-25.38-25.38H9.44l36.53,35.86c5.07-3.79,10.32-7.16,15.3-10.48Z"/>
    <path class="cls-1" d="M60.95,97.81l30.88,30.31,24.83-.12-43.63-43.63c-4.53,4.66-8.58,9.14-12.07,13.44Z"/>
  </g>
</svg>