<?xml version="1.0" encoding="UTF-8"?>
<svg id="Layer_1" data-name="Layer 1" xmlns="http://www.w3.org/2000/svg" viewBox="0 0 686.35 264.41">
  <defs>
    <style>
      .cls-1 {
        fill: #fff;
        stroke-width: 0px;
      }
    </style>
  </defs>
  <path class="cls-1" d="M141.61,175.74v-71.15h12.94v71.15h-12.94Z"/>
  <path class="cls-1" d="M253.27,175.74c-2.5,0-4.79-.63-6.87-1.88-2.08-1.25-3.74-2.92-4.99-4.99-1.25-2.08-1.88-4.36-1.88-6.87v-5.43h13.04v4.84c0,.33.11.61.35.84.23.23.51.35.84.35h42.59c.33,0,.61-.11.84-.35.23-.23.35-.51.35-.84v-13.54c0-.33-.12-.59-.35-.79-.23-.2-.51-.3-.84-.3h-43.08c-2.5,0-4.79-.63-6.87-1.88-2.08-1.25-3.74-2.92-4.99-4.99-1.25-2.08-1.88-4.4-1.88-6.97v-14.62c0-2.5.62-4.79,1.88-6.87,1.25-2.07,2.92-3.74,4.99-4.99,2.08-1.25,4.36-1.88,6.87-1.88h43.68c2.5,0,4.79.63,6.87,1.88,2.08,1.25,3.74,2.92,4.99,4.99,1.25,2.08,1.88,4.37,1.88,6.87v5.44h-13.14v-4.84c0-.33-.12-.61-.35-.84-.23-.23-.51-.35-.84-.35h-42.59c-.33,0-.61.12-.84.35-.23.23-.35.51-.35.84v13.54c0,.33.11.59.35.79.23.2.51.3.84.3h43.18c2.5,0,4.79.63,6.87,1.88,2.08,1.25,3.74,2.92,4.99,4.99,1.25,2.08,1.88,4.4,1.88,6.97v14.62c0,2.5-.63,4.79-1.88,6.87-1.25,2.08-2.92,3.74-4.99,4.99-2.08,1.25-4.37,1.88-6.87,1.88h-43.68Z"/>
  <path class="cls-1" d="M397.24,175.74v-71.25h13.04v58.1h58.1v13.14h-71.15Z"/>
  <polygon class="cls-1" points="334.79 146.79 376.89 146.79 376.89 133.55 365.59 133.55 334.79 133.55 321.65 133.55 321.65 175.74 387.16 175.74 387.16 162.6 334.79 162.6 334.79 146.79"/>
  <polygon class="cls-1" points="321.65 104.6 321.65 117.74 334.79 117.74 365.59 117.74 387.16 117.74 387.16 104.6 321.65 104.6"/>
  <rect class="cls-1" x="164.34" y="104.6" width="65.51" height="13.06"/>
  <polygon class="cls-1" points="177.48 146.79 219.57 146.79 219.57 133.55 177.48 133.55 177.48 133.47 164.34 133.47 164.34 175.74 229.85 175.74 229.85 162.6 177.48 162.6 177.48 146.79"/>
  <path class="cls-1" d="M130.05,111.46c-1.25-2.07-2.93-3.74-5.04-4.99-2.11-1.25-4.41-1.88-6.92-1.88h-57.31v13.06h53.38v.08h3.34c.33,0,.62.12.89.35.26.23.39.51.39.84v42.49c0,.33-.13.61-.39.84-.26.23-.56.35-.89.35h-42.59c-.33,0-.61-.11-.84-.35-.23-.23-.35-.51-.35-.84v-27.94h-12.94v42.27h57.31c2.5,0,4.81-.63,6.92-1.88,2.11-1.25,3.79-2.92,5.04-4.99,1.25-2.08,1.88-4.36,1.88-6.87v-43.68c0-2.5-.63-4.79-1.88-6.87Z"/>
  <path class="cls-1" d="M468.36,150.46v-11.9h40.4v11.9h-40.4Z"/>
  <path class="cls-1" d="M514.92,162.48v13.09h21.83s21.36-56.71,98.09-84.1c0,0-61.61,14.36-119.92,71.01Z"/>
  <g>
    <path class="cls-1" d="M634.84,91.47s-61.61,14.36-119.92,71.01v13.09c49.84-64.32,119.92-84.1,119.92-84.1Z"/>
    <polygon class="cls-1" points="514.92 175.45 514.92 175.57 514.93 175.57 514.92 175.45"/>
  </g>
  <g>
    <path class="cls-1" d="M555.94,126.89l-22.27-22.27h-23.22l32.06,31.47c4.45-3.33,9.05-6.29,13.43-9.2Z"/>
    <path class="cls-1" d="M555.66,149l27.1,26.6,21.78-.11-38.29-38.29c-3.97,4.09-7.53,8.02-10.59,11.8Z"/>
  </g>
</svg>